<?xml version="1.0" standalone="no"?>
<!DOCTYPE svg PUBLIC "-//W3C//DTD SVG 20010904//EN"
 "http://www.w3.org/TR/2001/REC-SVG-20010904/DTD/svg10.dtd">
<svg version="1.0" xmlns="http://www.w3.org/2000/svg"
 width="512.000000pt" height="512.000000pt" viewBox="0 0 512.000000 512.000000"
 preserveAspectRatio="xMidYMid meet">

<g transform="translate(0.000000,512.000000) scale(0.100000,-0.100000)"
fill="white" stroke="none">
<path d="M2385 5104 c-100 -18 -162 -38 -247 -80 -256 -125 -452 -358 -530
-629 l-23 -80 0 -970 0 -970 28 -88 c53 -170 132 -300 258 -424 126 -125 250
-199 416 -250 82 -25 100 -27 273 -27 173 0 191 2 273 27 166 51 290 125 416
250 126 124 205 254 258 424 l28 88 0 970 0 970 -23 80 c-78 271 -274 504
-530 629 -176 87 -395 116 -597 80z"/>
<path d="M905 3131 c-48 -22 -79 -54 -100 -103 -12 -31 -15 -88 -15 -325 0
-309 10 -414 54 -593 133 -539 584 -1033 1111 -1216 85 -30 242 -70 310 -79
106 -14 95 11 95 -221 l0 -204 -414 0 c-269 0 -425 -4 -443 -11 -40 -15 -82
-57 -104 -104 -45 -98 -3 -210 96 -256 38 -18 90 -19 1065 -19 975 0 1027 1
1065 19 99 46 141 158 96 256 -22 47 -64 89 -104 104 -18 7 -174 11 -443 11
l-414 0 0 204 c0 232 -11 207 95 221 124 17 293 67 435 130 471 207 865 673
986 1165 44 179 54 284 54 595 0 261 -2 294 -19 330 -22 48 -54 79 -103 100
-104 43 -229 -17 -257 -123 -6 -20 -12 -167 -15 -327 -4 -310 -13 -391 -61
-543 -66 -210 -173 -382 -344 -553 -278 -278 -579 -402 -971 -402 -392 0 -693
124 -971 402 -171 171 -278 343 -344 553 -48 152 -57 233 -61 543 -3 160 -9
307 -15 327 -29 109 -159 168 -264 119z"/>
</g>
</svg>
